Coordinates
version=1
nRows=17
nColumns=40
inDegrees=yes

Units are S.I. units (second, meters, Newtons, ...)
Angles are in degrees.

endheader
time	pelvis_tilt	pelvis_list	pelvis_rotation	pelvis_tx	pelvis_ty	pelvis_tz	hip_flexion_r	hip_adduction_r	hip_rotation_r	knee_angle_r	knee_angle_r_beta	ankle_angle_r	subtalar_angle_r	mtp_angle_r	hip_flexion_l	hip_adduction_l	hip_rotation_l	knee_angle_l	knee_angle_l_beta	ankle_angle_l	subtalar_angle_l	mtp_angle_l	lumbar_extension	lumbar_bending	lumbar_rotation	arm_flex_r	arm_add_r	arm_rot_r	elbow_flex_r	pro_sup_r	wrist_flex_r	wrist_dev_r	arm_flex_l	arm_add_l	arm_rot_l	elbow_flex_l	pro_sup_l	wrist_flex_l	wrist_dev_l
     24.63000000	     -2.40353715	     -7.79595611	     -4.48091038	      1.01128801	      0.92378474	      0.51391515	     12.10738196	      8.46217134	     -7.51463948	     21.13711769	     21.13711769	     13.30449032	     -3.90412046	     -3.36496686	      7.05133322	    -15.42708599	     -4.62457947	     41.68535950	     41.68535950	     12.38368476	    -15.57491814	    -10.28026744	     -8.59791659	      7.14143999	      0.27366769	     -7.66816031	    -16.61303113	     -1.99389613	     34.70113794	     46.01336449	      0.00000000	      0.00000000	     15.75667839	    -13.16273844	     -0.39353241	     64.55393025	     46.66200574	      0.00000000	      0.00000000
     24.65350000	     -2.13327735	     -8.00683844	     -3.68422780	      1.01057393	      0.92219120	      0.51730347	     12.07968416	      8.89942744	     -7.65184145	     22.06247296	     22.06247296	     13.87395563	     -5.21683280	     -3.46231708	     10.71674115	    -16.27624320	     -2.97833577	     48.10099257	     48.10099257	      9.17303147	    -17.46561720	    -10.87821908	     -8.74421142	      6.99847116	      0.02075414	     -4.82551277	    -16.41945207	     -2.01696220	     35.54701595	     45.99969840	      0.00000000	      0.00000000	     13.18944594	    -12.56135621	      0.38008916	     60.83599541	     46.54808882	      0.00000000	      0.00000000
     24.67700000	     -1.71368713	     -8.25879216	     -2.87150739	      1.00980973	      0.92066307	      0.52072472	     11.90802222	      9.43132946	     -7.63386422	     23.02304842	     23.02304842	     14.55622664	     -6.75197804	     -3.02323844	     14.19777942	    -16.95531924	     -1.20944526	     54.24062475	     54.24062475	      6.81477458	    -18.41832636	     -8.25068244	     -8.99869318	      6.93138276	      0.44590590	     -1.96613693	    -16.40409170	     -1.72743969	     35.80776733	     45.98362332	      0.00000000	      0.00000000	     12.25769091	    -11.31930421	      1.38541015	     53.33701915	     46.43488702	      0.00000000	      0.00000000
     24.70050000	     -1.40055440	     -8.43997493	     -2.05057113	      1.00890943	      0.91893759	      0.52386027	     11.86648325	      9.83554697	     -7.83401899	     23.99195353	     23.99195353	     15.29144949	     -7.88888734	     -2.57735700	     17.79090259	    -17.18007382	      0.80889651	     60.02563223	     60.02563223	      6.00729573	    -18.76799098	     -0.99004800	     -9.21379095	      6.81445476	      0.61805332	      0.84738296	    -16.37507166	     -1.94128901	     37.21667515	     45.94676257	      0.00000000	      0.00000000	     10.78066409	    -10.38484745	      2.26154699	     47.04391852	     46.35857983	      0.00000000	      0.00000000
     24.72400000	     -1.04110963	     -8.60608614	     -1.23577898	      1.00793083	      0.91743208	      0.52684436	     11.71436822	     10.27090131	     -7.90251041	     24.79977509	     24.79977509	     15.86807906	     -9.22685107	     -2.16261184	     21.03008068	    -17.25283127	      2.59834254	     64.79346742	     64.79346742	      5.37708155	    -19.10441704	      6.23504446	     -9.53419983	      6.68061334	      0.47302118	      4.06122987	    -16.23887565	     -2.16095312	     38.84669649	     45.90833009	      0.00000000	      0.00000000	      8.98104067	     -9.74444435	      2.92810469	     41.43382525	     46.27196267	      0.00000000	      0.00000000
     24.74750000	     -0.80331252	     -8.74763167	     -0.46355547	      1.00686956	      0.91598243	      0.52947669	     11.61021051	     10.62885367	     -8.14098641	     25.44466560	     25.44466560	     16.46286940	    -10.09546629	     -1.70782187	     24.14531640	    -17.20428452	      4.12642470	     68.64795046	     68.64795046	      5.62776960	    -19.27363372	     14.24173781	     -9.72628334	      6.57046354	      0.68015705	      6.99008565	    -16.26817323	     -2.46732221	     40.77493135	     45.85873145	      0.00000000	      0.00000000	      7.46728753	     -9.01582605	      3.47425058	     35.98595642	     46.19705960	      0.00000000	      0.00000000
     24.77100000	     -0.59289331	     -8.87109221	      0.28494362	      1.00576889	      0.91487745	      0.53184216	     11.43298944	     10.97557021	     -8.34967332	     25.86840987	     25.86840987	     16.91999221	    -10.93093447	     -1.25609305	     26.82911295	    -17.23607512	      5.17027392	     71.19560123	     71.19560123	      5.50113128	    -19.46049528	     18.80621098	     -9.94781370	      6.46395719	      0.74802932	     10.02647141	    -16.21067506	     -2.89115129	     43.25551141	     45.79514934	      0.00000000	      0.00000000	      5.56557209	     -8.57487370	      3.92286308	     31.87251749	     46.11545168	      0.00000000	      0.00000000
     24.79450000	     -0.44000481	     -8.94719160	      1.01248902	      1.00466713	      0.91422340	      0.53379817	     11.16356078	     11.25373686	     -8.58497856	     25.98274762	     25.98274762	     17.16963368	    -11.60786039	     -1.05592715	     29.12151022	    -17.27084075	      5.78513621	     72.49352650	     72.49352650	      5.25916966	    -19.59071925	     20.30010123	    -10.12472484	      6.35236436	      0.50130481	     13.42523122	    -15.93931861	     -3.27130519	     45.71763181	     45.73923413	      0.00000000	      0.00000000	      3.05479824	     -8.47397702	      4.26983616	     29.44770356	     46.02583384	      0.00000000	      0.00000000
     24.81800000	     -0.39448865	     -8.95795019	      1.72047285	      1.00337568	      0.91399193	      0.53516287	     10.88348162	     11.42049850	     -8.86561976	     25.83495947	     25.83495947	     17.32532954	    -12.10606041	     -0.78245155	     31.20839738	    -17.12502680	      6.14844528	     72.73833654	     72.73833654	      5.93830060	    -19.65113392	     21.95542000	    -10.25192469	      6.24030573	      0.39254394	     16.75297513	    -15.75896950	     -3.60840513	     48.44883711	     45.67122739	      0.00000000	      0.00000000	      0.77454378	     -8.35695631	      4.65204360	     27.20703466	     45.93013026	      0.00000000	      0.00000000
     24.84150000	     -0.42398111	     -8.80468290	      2.38868307	      1.00197526	      0.91430440	      0.53586533	     10.56424185	     11.34862588	     -9.22580668	     25.48347661	     25.48347661	     17.40264336	    -12.33487567	     -0.51546448	     32.92166367	    -16.69592719	      6.16727692	     71.82561979	     71.82561979	      7.21825953	    -19.68382808	     23.20601976	    -10.33203696	      6.02411935	      0.44334620	     19.99536478	    -15.69206916	     -3.92785361	     51.45212918	     45.59263677	      0.00000000	      0.00000000	     -1.36797065	     -8.28624293	      5.02646426	     25.43483768	     45.83095711	      0.00000000	      0.00000000
     24.86500000	     -0.61569977	     -8.50099328	      3.02946800	      1.00040931	      0.91495687	      0.53584636	     10.35360593	     11.01596976	     -9.69770602	     25.04517608	     25.04517608	     17.51722522	    -12.20541155	     -0.19239912	     34.32623364	    -15.89116606	      6.02721052	     69.76636239	     69.76636239	      8.99748923	    -19.68760893	     24.44708646	    -10.35280614	      5.72390186	      1.14136024	     22.22438558	    -16.28957068	     -4.19848490	     56.42350055	     45.43807325	      0.00000000	      0.00000000	     -3.08474511	     -8.28317562	      5.96997105	     24.19090875	     45.61608279	      0.00000000	      0.00000000
     24.88850000	     -0.84877457	     -8.05615301	      3.67893598	      0.99872170	      0.91612268	      0.53520891	     10.03920154	     10.50962467	    -10.14341437	     24.34012622	     24.34012622	     17.43708402	    -12.05889483	     -0.03346185	     35.17711903	    -14.76199337	      5.78433445	     66.45996347	     66.45996347	     10.45157772	    -19.66069844	     24.05129029	    -10.31556161	      5.29714074	      1.10903425	     25.68652077	    -16.16080119	     -4.57103351	     59.17618732	     45.37462799	      0.00000000	      0.00000000	     -5.08045792	     -8.36591333	      6.27265871	     23.33582116	     45.51945171	      0.00000000	      0.00000000
     24.91200000	     -1.24825671	     -7.51904837	      4.34081804	      0.99685573	      0.91735967	      0.53390494	      9.86157637	      9.80193618	    -10.78933095	     23.58860733	     23.58860733	     17.33863759	    -11.61270304	      0.00162154	     35.67374745	    -13.27352022	      5.72716808	     62.10892252	     62.10892252	     11.62684122	    -19.60087811	     23.16334661	    -10.16049712	      4.83346537	      1.01280040	     29.00602987	    -16.09306434	     -4.83563505	     62.54608713	     45.28593540	      0.00000000	      0.00000000	     -7.01418125	     -8.46838604	      6.60434349	     23.02018316	     45.40899411	      0.00000000	      0.00000000
     24.93550000	     -1.72134144	     -6.93052591	      5.00231447	      0.99499102	      0.91861137	      0.53211728	      9.71572962	      8.96356840	    -11.59540979	     22.80267758	     22.80267758	     17.19067401	    -10.90341510	     -0.37317740	     35.61320760	    -11.68874547	      5.75738898	     56.65952452	     56.65952452	     11.35780234	    -19.46196427	     19.27893251	    -10.03692609	      4.38017520	      1.55379344	     31.24959308	    -16.84263168	     -4.90032996	     67.87685944	     45.13141201	      0.00000000	      0.00000000	     -9.00069470	     -8.93187572	      7.84094520	     24.63096047	     45.09654608	      0.00000000	      0.00000000
     24.95900000	     -2.18779592	     -6.33048164	      5.64832684	      0.99322681	      0.91988861	      0.52997625	      9.49980212	      8.11284629	    -12.36270261	     21.94439595	     21.94439595	     17.00556266	    -10.22677999	     -0.72373260	     35.02395363	    -10.08321143	      6.04535585	     50.46948831	     50.46948831	     10.27865113	    -19.20705550	     14.64741041	     -9.86685554	      3.90556050	      1.68226959	     34.27473739	    -16.97351799	     -4.99913148	     71.58832726	     45.04525324	      0.00000000	      0.00000000	    -10.62167931	     -9.35540263	      9.42560940	     25.34072338	     44.77722602	      0.00000000	      0.00000000
     24.98250000	     -2.61105384	     -5.69539018	      6.24288337	      0.99164002	      0.92118608	      0.52756914	      9.21765286	      7.30339588	    -12.73709810	     21.10248945	     21.10248945	     16.90776269	    -10.06251865	     -0.64041195	     34.09252733	     -8.46198928	      6.67195398	     44.18774272	     44.18774272	     10.14056905	    -18.49229495	     14.31672290	     -9.68867090	      3.36597594	      1.73957697	     37.51773940	    -16.95612080	     -5.11688663	     73.80991191	     44.99340162	      0.00000000	      0.00000000	    -11.65634688	     -9.46911119	      9.70193432	     25.15078756	     44.71356276	      0.00000000	      0.00000000
     25.00600000	     -2.95312068	     -5.31572202	      6.84777285	      0.99048882	      0.92197619	      0.52506281	      8.81580355	      6.67250591	    -13.63712134	     20.24829993	     20.24829993	     16.75130964	     -9.13279930	     -1.46565103	     32.74396869	     -7.55750193	      6.95491846	     37.57653747	     37.57653747	      7.42777659	    -17.22288835	      7.56465501	     -9.67233428	      3.15805486	      2.00797016	     40.00587536	    -17.52299649	     -4.63999832	     78.44102327	     44.86995351	      0.00000000	      0.00000000	    -13.03914817	     -9.93984182	     11.11255793	     27.04015867	     44.47013136	      0.00000000	      0.00000000
